<mxfile host="app.diagrams.net" modified="2023-05-27T07:43:45.093Z" agent="Mozilla/5.0 (Windows NT 10.0; Win64; x64) AppleWebKit/537.36 (KHTML, like Gecko) Chrome/113.0.0.0 Safari/537.36" etag="aDrpu6GU6T1QMH-zOyaL" version="21.3.2" type="device" pages="2">
  <diagram name="Установка токена" id="146zDXUDA3-cfrdSQbRQ">
    <mxGraphModel dx="1195" dy="663" grid="1" gridSize="10" guides="1" tooltips="1" connect="1" arrows="1" fold="1" page="1" pageScale="1" pageWidth="827" pageHeight="1169" math="0" shadow="0">
      <root>
        <mxCell id="0" />
        <mxCell id="1" parent="0" />
        <mxCell id="S5BLIYKApcH7B8kvNWea-3" value="" style="edgeStyle=orthogonalEdgeStyle;rounded=0;orthogonalLoop=1;jettySize=auto;html=1;" edge="1" parent="1" source="S5BLIYKApcH7B8kvNWea-1" target="S5BLIYKApcH7B8kvNWea-2">
          <mxGeometry relative="1" as="geometry" />
        </mxCell>
        <mxCell id="S5BLIYKApcH7B8kvNWea-1" value="Установка токена&lt;br&gt;НАЧАЛО" style="rounded=1;whiteSpace=wrap;html=1;arcSize=50;" vertex="1" parent="1">
          <mxGeometry x="120" y="120" width="160" height="40" as="geometry" />
        </mxCell>
        <mxCell id="S5BLIYKApcH7B8kvNWea-7" value="" style="edgeStyle=orthogonalEdgeStyle;rounded=0;orthogonalLoop=1;jettySize=auto;html=1;exitX=0.5;exitY=1;exitDx=0;exitDy=0;" edge="1" parent="1" source="S5BLIYKApcH7B8kvNWea-25" target="S5BLIYKApcH7B8kvNWea-6">
          <mxGeometry relative="1" as="geometry">
            <mxPoint x="200" y="310" as="sourcePoint" />
          </mxGeometry>
        </mxCell>
        <mxCell id="S5BLIYKApcH7B8kvNWea-26" value="" style="edgeStyle=orthogonalEdgeStyle;rounded=0;orthogonalLoop=1;jettySize=auto;html=1;" edge="1" parent="1" source="S5BLIYKApcH7B8kvNWea-2" target="S5BLIYKApcH7B8kvNWea-25">
          <mxGeometry relative="1" as="geometry" />
        </mxCell>
        <mxCell id="S5BLIYKApcH7B8kvNWea-2" value="Получение id бота, токена" style="shape=parallelogram;perimeter=parallelogramPerimeter;whiteSpace=wrap;html=1;fixedSize=1;" vertex="1" parent="1">
          <mxGeometry x="120" y="190" width="160" height="50" as="geometry" />
        </mxCell>
        <mxCell id="S5BLIYKApcH7B8kvNWea-8" style="edgeStyle=orthogonalEdgeStyle;rounded=0;orthogonalLoop=1;jettySize=auto;html=1;exitX=1;exitY=0.5;exitDx=0;exitDy=0;entryX=0.5;entryY=0;entryDx=0;entryDy=0;" edge="1" parent="1" source="S5BLIYKApcH7B8kvNWea-6" target="S5BLIYKApcH7B8kvNWea-41">
          <mxGeometry relative="1" as="geometry">
            <mxPoint x="380" y="375" as="targetPoint" />
          </mxGeometry>
        </mxCell>
        <mxCell id="S5BLIYKApcH7B8kvNWea-11" value="" style="edgeStyle=orthogonalEdgeStyle;rounded=0;orthogonalLoop=1;jettySize=auto;html=1;" edge="1" parent="1" source="S5BLIYKApcH7B8kvNWea-6">
          <mxGeometry relative="1" as="geometry">
            <mxPoint x="200" y="460" as="targetPoint" />
          </mxGeometry>
        </mxCell>
        <mxCell id="S5BLIYKApcH7B8kvNWea-6" value="Токен валиден?" style="rhombus;whiteSpace=wrap;html=1;" vertex="1" parent="1">
          <mxGeometry x="120" y="340" width="160" height="70" as="geometry" />
        </mxCell>
        <mxCell id="S5BLIYKApcH7B8kvNWea-9" value="Нет" style="text;html=1;align=center;verticalAlign=middle;resizable=0;points=[];autosize=1;strokeColor=none;fillColor=none;" vertex="1" parent="1">
          <mxGeometry x="290" y="350" width="40" height="30" as="geometry" />
        </mxCell>
        <mxCell id="S5BLIYKApcH7B8kvNWea-13" style="edgeStyle=orthogonalEdgeStyle;rounded=0;orthogonalLoop=1;jettySize=auto;html=1;exitX=1;exitY=0.5;exitDx=0;exitDy=0;" edge="1" parent="1" source="S5BLIYKApcH7B8kvNWea-10">
          <mxGeometry relative="1" as="geometry">
            <mxPoint x="400" y="565" as="targetPoint" />
          </mxGeometry>
        </mxCell>
        <mxCell id="S5BLIYKApcH7B8kvNWea-16" value="" style="edgeStyle=orthogonalEdgeStyle;rounded=0;orthogonalLoop=1;jettySize=auto;html=1;" edge="1" parent="1" source="S5BLIYKApcH7B8kvNWea-10" target="S5BLIYKApcH7B8kvNWea-15">
          <mxGeometry relative="1" as="geometry" />
        </mxCell>
        <mxCell id="S5BLIYKApcH7B8kvNWea-10" value="Бот существует?" style="rhombus;whiteSpace=wrap;html=1;" vertex="1" parent="1">
          <mxGeometry x="120" y="530" width="160" height="70" as="geometry" />
        </mxCell>
        <mxCell id="S5BLIYKApcH7B8kvNWea-12" value="Да" style="text;html=1;align=center;verticalAlign=middle;resizable=0;points=[];autosize=1;strokeColor=none;fillColor=none;" vertex="1" parent="1">
          <mxGeometry x="200" y="410" width="40" height="30" as="geometry" />
        </mxCell>
        <mxCell id="S5BLIYKApcH7B8kvNWea-14" value="Нет" style="text;html=1;align=center;verticalAlign=middle;resizable=0;points=[];autosize=1;strokeColor=none;fillColor=none;" vertex="1" parent="1">
          <mxGeometry x="280" y="538" width="40" height="30" as="geometry" />
        </mxCell>
        <mxCell id="S5BLIYKApcH7B8kvNWea-18" style="edgeStyle=orthogonalEdgeStyle;rounded=0;orthogonalLoop=1;jettySize=auto;html=1;exitX=1;exitY=0.5;exitDx=0;exitDy=0;" edge="1" parent="1" source="S5BLIYKApcH7B8kvNWea-15">
          <mxGeometry relative="1" as="geometry">
            <mxPoint x="400" y="675" as="targetPoint" />
          </mxGeometry>
        </mxCell>
        <mxCell id="S5BLIYKApcH7B8kvNWea-22" value="" style="edgeStyle=orthogonalEdgeStyle;rounded=0;orthogonalLoop=1;jettySize=auto;html=1;entryX=0.5;entryY=0;entryDx=0;entryDy=0;" edge="1" parent="1" source="S5BLIYKApcH7B8kvNWea-15" target="S5BLIYKApcH7B8kvNWea-29">
          <mxGeometry relative="1" as="geometry">
            <mxPoint x="200" y="750" as="targetPoint" />
          </mxGeometry>
        </mxCell>
        <mxCell id="S5BLIYKApcH7B8kvNWea-15" value="Бот запущен?" style="rhombus;whiteSpace=wrap;html=1;" vertex="1" parent="1">
          <mxGeometry x="120" y="640" width="160" height="70" as="geometry" />
        </mxCell>
        <mxCell id="S5BLIYKApcH7B8kvNWea-17" value="Да" style="text;html=1;align=center;verticalAlign=middle;resizable=0;points=[];autosize=1;strokeColor=none;fillColor=none;" vertex="1" parent="1">
          <mxGeometry x="200" y="600" width="40" height="30" as="geometry" />
        </mxCell>
        <mxCell id="S5BLIYKApcH7B8kvNWea-19" value="Да" style="text;html=1;align=center;verticalAlign=middle;resizable=0;points=[];autosize=1;strokeColor=none;fillColor=none;" vertex="1" parent="1">
          <mxGeometry x="270" y="640" width="40" height="30" as="geometry" />
        </mxCell>
        <mxCell id="S5BLIYKApcH7B8kvNWea-23" value="Нет" style="text;html=1;align=center;verticalAlign=middle;resizable=0;points=[];autosize=1;strokeColor=none;fillColor=none;" vertex="1" parent="1">
          <mxGeometry x="200" y="708" width="40" height="30" as="geometry" />
        </mxCell>
        <mxCell id="S5BLIYKApcH7B8kvNWea-25" value="Выполнить валидацию токена" style="rounded=0;whiteSpace=wrap;html=1;" vertex="1" parent="1">
          <mxGeometry x="120" y="270" width="160" height="40" as="geometry" />
        </mxCell>
        <mxCell id="S5BLIYKApcH7B8kvNWea-28" value="" style="edgeStyle=orthogonalEdgeStyle;rounded=0;orthogonalLoop=1;jettySize=auto;html=1;entryX=0.5;entryY=0;entryDx=0;entryDy=0;" edge="1" parent="1" source="S5BLIYKApcH7B8kvNWea-27" target="S5BLIYKApcH7B8kvNWea-10">
          <mxGeometry relative="1" as="geometry" />
        </mxCell>
        <mxCell id="S5BLIYKApcH7B8kvNWea-27" value="Поиск бота в БД" style="rounded=0;whiteSpace=wrap;html=1;" vertex="1" parent="1">
          <mxGeometry x="120" y="460" width="160" height="40" as="geometry" />
        </mxCell>
        <mxCell id="S5BLIYKApcH7B8kvNWea-31" value="" style="edgeStyle=orthogonalEdgeStyle;rounded=0;orthogonalLoop=1;jettySize=auto;html=1;" edge="1" parent="1" source="S5BLIYKApcH7B8kvNWea-29" target="S5BLIYKApcH7B8kvNWea-30">
          <mxGeometry relative="1" as="geometry" />
        </mxCell>
        <mxCell id="S5BLIYKApcH7B8kvNWea-29" value="Поиск токена в БД" style="rounded=0;whiteSpace=wrap;html=1;" vertex="1" parent="1">
          <mxGeometry x="120" y="750" width="160" height="40" as="geometry" />
        </mxCell>
        <mxCell id="S5BLIYKApcH7B8kvNWea-32" style="edgeStyle=orthogonalEdgeStyle;rounded=0;orthogonalLoop=1;jettySize=auto;html=1;exitX=1;exitY=0.5;exitDx=0;exitDy=0;" edge="1" parent="1" source="S5BLIYKApcH7B8kvNWea-30">
          <mxGeometry relative="1" as="geometry">
            <mxPoint x="400" y="855" as="targetPoint" />
          </mxGeometry>
        </mxCell>
        <mxCell id="S5BLIYKApcH7B8kvNWea-35" value="" style="edgeStyle=orthogonalEdgeStyle;rounded=0;orthogonalLoop=1;jettySize=auto;html=1;" edge="1" parent="1" source="S5BLIYKApcH7B8kvNWea-30" target="S5BLIYKApcH7B8kvNWea-34">
          <mxGeometry relative="1" as="geometry" />
        </mxCell>
        <mxCell id="S5BLIYKApcH7B8kvNWea-30" value="Токен существует?" style="rhombus;whiteSpace=wrap;html=1;" vertex="1" parent="1">
          <mxGeometry x="120" y="820" width="160" height="70" as="geometry" />
        </mxCell>
        <mxCell id="S5BLIYKApcH7B8kvNWea-33" value="Да" style="text;html=1;align=center;verticalAlign=middle;resizable=0;points=[];autosize=1;strokeColor=none;fillColor=none;" vertex="1" parent="1">
          <mxGeometry x="270" y="820" width="40" height="30" as="geometry" />
        </mxCell>
        <mxCell id="S5BLIYKApcH7B8kvNWea-38" value="" style="edgeStyle=orthogonalEdgeStyle;rounded=0;orthogonalLoop=1;jettySize=auto;html=1;" edge="1" parent="1" source="S5BLIYKApcH7B8kvNWea-34" target="S5BLIYKApcH7B8kvNWea-37">
          <mxGeometry relative="1" as="geometry" />
        </mxCell>
        <mxCell id="S5BLIYKApcH7B8kvNWea-34" value="Записать токен в БД" style="whiteSpace=wrap;html=1;" vertex="1" parent="1">
          <mxGeometry x="120" y="920" width="160" height="40" as="geometry" />
        </mxCell>
        <mxCell id="S5BLIYKApcH7B8kvNWea-36" value="Нет" style="text;html=1;align=center;verticalAlign=middle;resizable=0;points=[];autosize=1;strokeColor=none;fillColor=none;" vertex="1" parent="1">
          <mxGeometry x="200" y="888" width="40" height="30" as="geometry" />
        </mxCell>
        <mxCell id="S5BLIYKApcH7B8kvNWea-40" value="" style="edgeStyle=orthogonalEdgeStyle;rounded=0;orthogonalLoop=1;jettySize=auto;html=1;" edge="1" parent="1" source="S5BLIYKApcH7B8kvNWea-37" target="S5BLIYKApcH7B8kvNWea-39">
          <mxGeometry relative="1" as="geometry" />
        </mxCell>
        <mxCell id="S5BLIYKApcH7B8kvNWea-37" value="Вернуть положительный результат" style="shape=parallelogram;perimeter=parallelogramPerimeter;whiteSpace=wrap;html=1;fixedSize=1;" vertex="1" parent="1">
          <mxGeometry x="120" y="990" width="160" height="50" as="geometry" />
        </mxCell>
        <mxCell id="S5BLIYKApcH7B8kvNWea-39" value="Установка токена&lt;br&gt;КОНЕЦ" style="rounded=1;whiteSpace=wrap;html=1;arcSize=50;" vertex="1" parent="1">
          <mxGeometry x="120" y="1080" width="160" height="40" as="geometry" />
        </mxCell>
        <mxCell id="S5BLIYKApcH7B8kvNWea-43" value="" style="edgeStyle=orthogonalEdgeStyle;rounded=0;orthogonalLoop=1;jettySize=auto;html=1;exitX=0.5;exitY=1;exitDx=0;exitDy=0;" edge="1" parent="1" source="S5BLIYKApcH7B8kvNWea-41">
          <mxGeometry relative="1" as="geometry">
            <mxPoint x="200" y="1060" as="targetPoint" />
            <Array as="points">
              <mxPoint x="400" y="1060" />
            </Array>
          </mxGeometry>
        </mxCell>
        <mxCell id="S5BLIYKApcH7B8kvNWea-41" value="Вернуть ошибку" style="shape=parallelogram;perimeter=parallelogramPerimeter;whiteSpace=wrap;html=1;fixedSize=1;" vertex="1" parent="1">
          <mxGeometry x="320" y="990" width="160" height="50" as="geometry" />
        </mxCell>
      </root>
    </mxGraphModel>
  </diagram>
  <diagram id="NcYpT7_ssdRYRPxTZxfH" name="Запуск бота">
    <mxGraphModel dx="956" dy="531" grid="1" gridSize="10" guides="1" tooltips="1" connect="1" arrows="1" fold="1" page="1" pageScale="1" pageWidth="827" pageHeight="1169" math="0" shadow="0">
      <root>
        <mxCell id="0" />
        <mxCell id="1" parent="0" />
        <mxCell id="9Ztq2XwoCGZLlRuz86bp-1" value="" style="edgeStyle=orthogonalEdgeStyle;rounded=0;orthogonalLoop=1;jettySize=auto;html=1;" edge="1" parent="1" source="9Ztq2XwoCGZLlRuz86bp-2" target="9Ztq2XwoCGZLlRuz86bp-4">
          <mxGeometry relative="1" as="geometry" />
        </mxCell>
        <mxCell id="9Ztq2XwoCGZLlRuz86bp-2" value="Запуск бота&lt;br&gt;НАЧАЛО" style="rounded=1;whiteSpace=wrap;html=1;arcSize=50;" vertex="1" parent="1">
          <mxGeometry x="120" y="40" width="160" height="40" as="geometry" />
        </mxCell>
        <mxCell id="9Ztq2XwoCGZLlRuz86bp-3" value="" style="edgeStyle=orthogonalEdgeStyle;rounded=0;orthogonalLoop=1;jettySize=auto;html=1;entryX=0.5;entryY=0;entryDx=0;entryDy=0;" edge="1" parent="1" source="9Ztq2XwoCGZLlRuz86bp-4" target="Wp5g9o_O7Doz-x145ReK-4">
          <mxGeometry relative="1" as="geometry">
            <mxPoint x="200" y="190" as="targetPoint" />
          </mxGeometry>
        </mxCell>
        <mxCell id="9Ztq2XwoCGZLlRuz86bp-4" value="Получение id бота" style="shape=parallelogram;perimeter=parallelogramPerimeter;whiteSpace=wrap;html=1;fixedSize=1;" vertex="1" parent="1">
          <mxGeometry x="120" y="110" width="160" height="50" as="geometry" />
        </mxCell>
        <mxCell id="Wp5g9o_O7Doz-x145ReK-6" value="" style="edgeStyle=orthogonalEdgeStyle;rounded=0;orthogonalLoop=1;jettySize=auto;html=1;entryX=0.5;entryY=0;entryDx=0;entryDy=0;" edge="1" parent="1" source="Wp5g9o_O7Doz-x145ReK-1" target="sPa1BCi5Ub7CK83J2O7Q-1">
          <mxGeometry relative="1" as="geometry">
            <mxPoint x="200.0344827586207" y="370" as="targetPoint" />
          </mxGeometry>
        </mxCell>
        <mxCell id="sPa1BCi5Ub7CK83J2O7Q-3" style="edgeStyle=orthogonalEdgeStyle;rounded=0;orthogonalLoop=1;jettySize=auto;html=1;exitX=1;exitY=0.5;exitDx=0;exitDy=0;entryX=0.5;entryY=0;entryDx=0;entryDy=0;" edge="1" parent="1" source="Wp5g9o_O7Doz-x145ReK-1" target="kMbMefYoTz1sDI0ljd4r-1">
          <mxGeometry relative="1" as="geometry">
            <mxPoint x="420" y="299.28571428571433" as="targetPoint" />
          </mxGeometry>
        </mxCell>
        <mxCell id="Wp5g9o_O7Doz-x145ReK-1" value="Бот существует?" style="rhombus;whiteSpace=wrap;html=1;" vertex="1" parent="1">
          <mxGeometry x="120" y="264" width="160" height="70" as="geometry" />
        </mxCell>
        <mxCell id="Wp5g9o_O7Doz-x145ReK-2" value="Нет" style="text;html=1;align=center;verticalAlign=middle;resizable=0;points=[];autosize=1;strokeColor=none;fillColor=none;" vertex="1" parent="1">
          <mxGeometry x="270" y="264" width="40" height="30" as="geometry" />
        </mxCell>
        <mxCell id="Wp5g9o_O7Doz-x145ReK-3" value="" style="edgeStyle=orthogonalEdgeStyle;rounded=0;orthogonalLoop=1;jettySize=auto;html=1;entryX=0.5;entryY=0;entryDx=0;entryDy=0;" edge="1" parent="1" source="Wp5g9o_O7Doz-x145ReK-4" target="Wp5g9o_O7Doz-x145ReK-1">
          <mxGeometry relative="1" as="geometry" />
        </mxCell>
        <mxCell id="Wp5g9o_O7Doz-x145ReK-4" value="Поиск бота в БД" style="rounded=0;whiteSpace=wrap;html=1;" vertex="1" parent="1">
          <mxGeometry x="120" y="194" width="160" height="40" as="geometry" />
        </mxCell>
        <mxCell id="sPa1BCi5Ub7CK83J2O7Q-4" style="edgeStyle=orthogonalEdgeStyle;rounded=0;orthogonalLoop=1;jettySize=auto;html=1;exitX=1;exitY=0.5;exitDx=0;exitDy=0;" edge="1" parent="1" source="sPa1BCi5Ub7CK83J2O7Q-1">
          <mxGeometry relative="1" as="geometry">
            <mxPoint x="440" y="405" as="targetPoint" />
          </mxGeometry>
        </mxCell>
        <mxCell id="HOptIza45ZJJpF8n_OLi-1" style="edgeStyle=orthogonalEdgeStyle;rounded=0;orthogonalLoop=1;jettySize=auto;html=1;exitX=0.5;exitY=1;exitDx=0;exitDy=0;entryX=0.5;entryY=0;entryDx=0;entryDy=0;" edge="1" parent="1" source="sPa1BCi5Ub7CK83J2O7Q-1" target="HOptIza45ZJJpF8n_OLi-2">
          <mxGeometry relative="1" as="geometry">
            <mxPoint x="199.8571428571429" y="470" as="targetPoint" />
          </mxGeometry>
        </mxCell>
        <mxCell id="sPa1BCi5Ub7CK83J2O7Q-1" value="Бот запущен?" style="rhombus;whiteSpace=wrap;html=1;" vertex="1" parent="1">
          <mxGeometry x="120" y="370" width="160" height="70" as="geometry" />
        </mxCell>
        <mxCell id="sPa1BCi5Ub7CK83J2O7Q-2" value="Да" style="text;html=1;align=center;verticalAlign=middle;resizable=0;points=[];autosize=1;strokeColor=none;fillColor=none;" vertex="1" parent="1">
          <mxGeometry x="200" y="330" width="40" height="30" as="geometry" />
        </mxCell>
        <mxCell id="sPa1BCi5Ub7CK83J2O7Q-5" value="Да" style="text;html=1;align=center;verticalAlign=middle;resizable=0;points=[];autosize=1;strokeColor=none;fillColor=none;" vertex="1" parent="1">
          <mxGeometry x="280" y="368" width="40" height="30" as="geometry" />
        </mxCell>
        <mxCell id="HOptIza45ZJJpF8n_OLi-4" style="edgeStyle=orthogonalEdgeStyle;rounded=0;orthogonalLoop=1;jettySize=auto;html=1;exitX=1;exitY=0.5;exitDx=0;exitDy=0;" edge="1" parent="1" source="HOptIza45ZJJpF8n_OLi-2">
          <mxGeometry relative="1" as="geometry">
            <mxPoint x="440" y="515" as="targetPoint" />
          </mxGeometry>
        </mxCell>
        <mxCell id="HOptIza45ZJJpF8n_OLi-9" value="" style="edgeStyle=orthogonalEdgeStyle;rounded=0;orthogonalLoop=1;jettySize=auto;html=1;entryX=0.5;entryY=0;entryDx=0;entryDy=0;" edge="1" parent="1" source="HOptIza45ZJJpF8n_OLi-2" target="rI-XtC3FtW-L7CWhy7jy-1">
          <mxGeometry relative="1" as="geometry">
            <mxPoint x="200" y="590" as="targetPoint" />
          </mxGeometry>
        </mxCell>
        <mxCell id="HOptIza45ZJJpF8n_OLi-2" value="Токен бота установлен?" style="rhombus;whiteSpace=wrap;html=1;" vertex="1" parent="1">
          <mxGeometry x="120" y="480" width="160" height="70" as="geometry" />
        </mxCell>
        <mxCell id="HOptIza45ZJJpF8n_OLi-3" value="Нет" style="text;html=1;align=center;verticalAlign=middle;resizable=0;points=[];autosize=1;strokeColor=none;fillColor=none;" vertex="1" parent="1">
          <mxGeometry x="200" y="440" width="40" height="30" as="geometry" />
        </mxCell>
        <mxCell id="HOptIza45ZJJpF8n_OLi-5" value="Нет" style="text;html=1;align=center;verticalAlign=middle;resizable=0;points=[];autosize=1;strokeColor=none;fillColor=none;" vertex="1" parent="1">
          <mxGeometry x="270" y="478" width="40" height="30" as="geometry" />
        </mxCell>
        <mxCell id="tN4oV0H9u5vrie8h7UsJ-2" value="" style="edgeStyle=orthogonalEdgeStyle;rounded=0;orthogonalLoop=1;jettySize=auto;html=1;entryX=0.5;entryY=0;entryDx=0;entryDy=0;" edge="1" parent="1" source="HOptIza45ZJJpF8n_OLi-8" target="cwiCEqKCDeazCMPiw84K-1">
          <mxGeometry relative="1" as="geometry">
            <mxPoint x="200" y="730" as="targetPoint" />
          </mxGeometry>
        </mxCell>
        <mxCell id="HOptIza45ZJJpF8n_OLi-8" value="Запустить обработчик обновлений от пользователей бота" style="whiteSpace=wrap;html=1;" vertex="1" parent="1">
          <mxGeometry x="120" y="650" width="160" height="50" as="geometry" />
        </mxCell>
        <mxCell id="HOptIza45ZJJpF8n_OLi-10" value="Да" style="text;html=1;align=center;verticalAlign=middle;resizable=0;points=[];autosize=1;strokeColor=none;fillColor=none;" vertex="1" parent="1">
          <mxGeometry x="200" y="548" width="40" height="30" as="geometry" />
        </mxCell>
        <mxCell id="tN4oV0H9u5vrie8h7UsJ-1" value="Запуск бота&lt;br&gt;КОНЕЦ" style="rounded=1;whiteSpace=wrap;html=1;arcSize=50;" vertex="1" parent="1">
          <mxGeometry x="120" y="820" width="160" height="40" as="geometry" />
        </mxCell>
        <mxCell id="kMbMefYoTz1sDI0ljd4r-2" style="edgeStyle=orthogonalEdgeStyle;rounded=0;orthogonalLoop=1;jettySize=auto;html=1;exitX=0.5;exitY=1;exitDx=0;exitDy=0;" edge="1" parent="1" source="kMbMefYoTz1sDI0ljd4r-1">
          <mxGeometry relative="1" as="geometry">
            <mxPoint x="200" y="800" as="targetPoint" />
            <Array as="points">
              <mxPoint x="440" y="800" />
            </Array>
          </mxGeometry>
        </mxCell>
        <mxCell id="kMbMefYoTz1sDI0ljd4r-1" value="Вернуть ошибку" style="shape=parallelogram;perimeter=parallelogramPerimeter;whiteSpace=wrap;html=1;fixedSize=1;" vertex="1" parent="1">
          <mxGeometry x="360" y="720" width="160" height="50" as="geometry" />
        </mxCell>
        <mxCell id="rI-XtC3FtW-L7CWhy7jy-2" value="" style="edgeStyle=orthogonalEdgeStyle;rounded=0;orthogonalLoop=1;jettySize=auto;html=1;" edge="1" parent="1" source="rI-XtC3FtW-L7CWhy7jy-1" target="HOptIza45ZJJpF8n_OLi-8">
          <mxGeometry relative="1" as="geometry" />
        </mxCell>
        <mxCell id="rI-XtC3FtW-L7CWhy7jy-1" value="Установить Webhook" style="whiteSpace=wrap;html=1;" vertex="1" parent="1">
          <mxGeometry x="120" y="578" width="160" height="50" as="geometry" />
        </mxCell>
        <mxCell id="cwiCEqKCDeazCMPiw84K-2" value="" style="edgeStyle=orthogonalEdgeStyle;rounded=0;orthogonalLoop=1;jettySize=auto;html=1;" edge="1" parent="1" source="cwiCEqKCDeazCMPiw84K-1" target="tN4oV0H9u5vrie8h7UsJ-1">
          <mxGeometry relative="1" as="geometry" />
        </mxCell>
        <mxCell id="cwiCEqKCDeazCMPiw84K-1" value="Вернуть положительный результат" style="shape=parallelogram;perimeter=parallelogramPerimeter;whiteSpace=wrap;html=1;fixedSize=1;" vertex="1" parent="1">
          <mxGeometry x="120" y="730" width="160" height="50" as="geometry" />
        </mxCell>
      </root>
    </mxGraphModel>
  </diagram>
</mxfile>
